<mxfile host="app.diagrams.net" modified="2023-12-10T00:49:28.484Z" agent="Mozilla/5.0 (Macintosh; Intel Mac OS X 10_15_7) AppleWebKit/537.36 (KHTML, like Gecko) Chrome/119.0.0.0 Safari/537.36" etag="owlA2Xvh003LgGDTbE6b" version="21.5.0" type="github">
  <diagram name="ページ1" id="StgelwGumjHtGYT_Ru6y">
    <mxGraphModel dx="821" dy="474" grid="1" gridSize="10" guides="1" tooltips="1" connect="1" arrows="1" fold="1" page="1" pageScale="1" pageWidth="827" pageHeight="1169" math="0" shadow="0">
      <root>
        <mxCell id="0" />
        <mxCell id="1" parent="0" />
        <mxCell id="H-dMhjcq22RLrvhG-H0J-2" value="" style="image;html=1;image=img/lib/clip_art/computers/Netbook_128x128.png" vertex="1" parent="1">
          <mxGeometry x="180" y="250" width="80" height="80" as="geometry" />
        </mxCell>
        <mxCell id="H-dMhjcq22RLrvhG-H0J-3" value="" style="image;html=1;image=img/lib/clip_art/computers/Netbook_128x128.png" vertex="1" parent="1">
          <mxGeometry x="530" y="120" width="80" height="80" as="geometry" />
        </mxCell>
        <mxCell id="H-dMhjcq22RLrvhG-H0J-4" value="" style="image;html=1;image=img/lib/clip_art/networking/Ip_Camera_128x128.png" vertex="1" parent="1">
          <mxGeometry x="530" y="250" width="80" height="80" as="geometry" />
        </mxCell>
        <mxCell id="H-dMhjcq22RLrvhG-H0J-5" value="" style="image;html=1;image=img/lib/clip_art/networking/Wireless_Router_128x128.png" vertex="1" parent="1">
          <mxGeometry x="374" y="240" width="80" height="80" as="geometry" />
        </mxCell>
        <mxCell id="H-dMhjcq22RLrvhG-H0J-6" value="" style="image;html=1;image=img/lib/clip_art/telecommunication/iPhone_128x128.png" vertex="1" parent="1">
          <mxGeometry x="520" y="370" width="80" height="80" as="geometry" />
        </mxCell>
        <mxCell id="H-dMhjcq22RLrvhG-H0J-7" value="" style="html=1;shadow=0;dashed=0;align=center;verticalAlign=middle;shape=mxgraph.arrows2.arrow;dy=0.6;dx=40;flipH=1;notch=0;fillColor=#dae8fc;strokeColor=#6c8ebf;" vertex="1" parent="1">
          <mxGeometry x="270" y="280" width="80" height="30" as="geometry" />
        </mxCell>
        <mxCell id="H-dMhjcq22RLrvhG-H0J-10" value="" style="html=1;shadow=0;dashed=0;align=center;verticalAlign=middle;shape=mxgraph.arrows2.arrow;dy=0.6;dx=40;flipH=1;notch=0;rotation=-45;fillColor=#dae8fc;strokeColor=#6c8ebf;" vertex="1" parent="1">
          <mxGeometry x="454" y="210" width="80" height="30" as="geometry" />
        </mxCell>
        <mxCell id="H-dMhjcq22RLrvhG-H0J-11" value="" style="html=1;shadow=0;dashed=0;align=center;verticalAlign=middle;shape=mxgraph.arrows2.arrow;dy=0.6;dx=40;flipH=1;notch=0;rotation=45;fillColor=#dae8fc;strokeColor=#6c8ebf;" vertex="1" parent="1">
          <mxGeometry x="460" y="360" width="80" height="30" as="geometry" />
        </mxCell>
        <mxCell id="H-dMhjcq22RLrvhG-H0J-12" value="" style="html=1;shadow=0;dashed=0;align=center;verticalAlign=middle;shape=mxgraph.arrows2.arrow;dy=0.6;dx=40;flipH=1;notch=0;fillColor=#dae8fc;strokeColor=#6c8ebf;" vertex="1" parent="1">
          <mxGeometry x="464" y="280" width="66" height="30" as="geometry" />
        </mxCell>
      </root>
    </mxGraphModel>
  </diagram>
</mxfile>
